<?xml version="1.0" standalone="no"?>
<!DOCTYPE svg PUBLIC "-//W3C//DTD SVG 20010904//EN"
 "http://www.w3.org/TR/2001/REC-SVG-20010904/DTD/svg10.dtd">
<svg version="1.0" xmlns="http://www.w3.org/2000/svg"
 width="386.000000pt" height="359.000000pt" viewBox="0 0 386.000000 359.000000"
 preserveAspectRatio="xMidYMid meet">

<g transform="translate(0.000000,359.000000) scale(0.100000,-0.100000)"
fill="#fbf8f8ff" stroke="none">
<path d="M1745 3465 c-271 -36 -540 -145 -763 -310 -163 -119 -367 -350 -448
-506 -14 -28 -14 -28 32 -49 26 -11 48 -20 49 -20 2 0 32 44 68 98 434 651
1262 876 1952 530 267 -134 475 -330 648 -610 l17 -28 45 22 c25 12 45 27 45
33 0 6 -26 51 -58 100 -169 260 -376 446 -647 579 -304 151 -615 203 -940 161z"/>
<path d="M1837 3045 c-182 -50 -311 -192 -339 -373 -50 -321 250 -589 567
-507 85 23 149 61 210 127 136 147 166 355 77 523 -97 181 -324 282 -515 230z
m237 -125 c72 -27 135 -85 177 -162 31 -58 34 -70 34 -153 0 -78 -4 -97 -28
-146 -33 -69 -99 -132 -175 -167 -48 -23 -70 -27 -137 -26 -129 1 -233 61
-293 167 -79 140 -58 297 55 410 101 101 230 128 367 77z"/>
<path d="M3420 2517 c-64 -18 -116 -63 -147 -125 -23 -47 -25 -61 -20 -125 l5
-72 -111 -48 c-385 -162 -733 -251 -1083 -277 -364 -26 -821 64 -1269 251 -66
28 -124 54 -129 59 -5 5 -3 31 4 60 33 139 -78 280 -222 280 -31 0 -69 -5 -85
-11 -95 -35 -153 -119 -153 -221 0 -171 158 -274 327 -213 l51 18 115 -51
c327 -146 740 -256 1040 -278 53 -4 97 -10 97 -13 0 -4 -73 -118 -162 -254
-90 -135 -237 -359 -327 -497 l-164 -250 -51 6 c-191 23 -325 -167 -239 -337
49 -96 160 -147 262 -120 111 30 176 116 176 231 -1 62 -10 89 -47 142 -12 17
-28 -9 488 775 87 134 162 242 166 240 10 -3 668 -986 668 -997 0 -5 -11 -30
-25 -56 -51 -96 -26 -219 58 -288 92 -74 210 -74 297 2 58 49 83 104 83 177
-1 76 -20 121 -76 173 -54 48 -110 66 -187 59 l-55 -6 -332 498 c-183 274
-333 500 -333 503 0 3 37 8 83 12 336 28 781 150 1130 309 l77 36 49 -24 c130
-66 286 1 326 140 52 178 -107 341 -285 292z m130 -126 c14 -10 34 -35 44 -56
17 -35 18 -42 5 -79 -25 -71 -103 -105 -167 -72 -64 33 -87 96 -57 159 34 72
110 93 175 48z m-3050 4 c43 -22 60 -53 60 -109 0 -43 -4 -53 -36 -82 -28 -27
-44 -34 -75 -34 -76 0 -129 49 -129 119 0 91 98 149 180 106z m682 -1776 c32
-23 52 -78 43 -118 -8 -39 -60 -89 -99 -97 -77 -14 -152 54 -142 130 12 99
115 143 198 85z m1662 16 c41 -20 66 -63 66 -115 0 -34 -6 -48 -33 -75 -56
-56 -111 -58 -168 -7 -62 55 -43 164 34 197 42 18 62 18 101 0z"/>
<path d="M334 1968 c-13 -21 -16 -131 -5 -243 28 -298 111 -538 268 -775 63
-95 192 -252 211 -257 4 -1 21 16 39 38 l32 40 -70 82 c-170 197 -292 440
-343 682 -19 93 -38 294 -34 362 l3 55 -48 13 c-28 7 -50 8 -53 3z"/>
<path d="M3514 1963 l-31 -4 -6 -162 c-9 -233 -54 -416 -153 -617 -65 -134
-181 -299 -267 -380 -15 -14 -27 -29 -26 -35 0 -5 15 -27 33 -48 l32 -39 56
61 c160 172 273 360 346 572 66 192 92 345 92 540 0 133 7 122 -76 112z"/>
<path d="M1398 376 c-28 -57 -31 -55 117 -95 303 -84 634 -80 925 11 36 11 69
24 73 28 5 4 -1 27 -13 50 -25 48 -24 48 -155 10 -159 -46 -394 -62 -574 -40
-68 9 -203 40 -328 76 -19 5 -26 -1 -45 -40z"/>
</g>
</svg>
