<?xml version="1.0" standalone="no"?>
<!DOCTYPE svg PUBLIC "-//W3C//DTD SVG 20010904//EN"
 "http://www.w3.org/TR/2001/REC-SVG-20010904/DTD/svg10.dtd">
<svg version="1.0" xmlns="http://www.w3.org/2000/svg"
 width="1254.000000pt" height="1254.000000pt" viewBox="0 0 1254.000000 1254.000000"
 preserveAspectRatio="xMidYMid meet">

<g transform="translate(0.000000,1254.000000) scale(0.100000,-0.100000)"
fill="#ffffff" stroke="none">
<path d="M5864 10660 c-237 -14 -525 -58 -779 -120 -1101 -267 -2009 -936
-2601 -1916 -326 -540 -528 -1121 -611 -1759 -26 -198 -25 -726 0 -935 75
-600 264 -1179 538 -1646 115 -196 404 -592 486 -666 19 -17 26 -12 214 143
107 88 198 164 203 169 5 5 -20 48 -61 102 -372 495 -613 1024 -732 1608 -141
686 -95 1356 139 2035 146 421 405 879 704 1242 128 155 389 411 546 537 618
493 1269 753 2073 827 165 15 590 6 756 -15 1110 -146 2122 -772 2787 -1723
47 -68 87 -123 89 -123 2 0 -18 46 -44 103 -110 236 -294 527 -477 757 -130
163 -408 443 -559 563 -737 588 -1672 873 -2671 817z"/>
<path d="M5420 7763 c-268 -7 -680 -34 -735 -48 -141 -36 -248 -119 -353 -273
-65 -96 -217 -350 -307 -512 -84 -153 -82 -150 -93 -104 -5 22 -15 66 -22 99
-24 114 -77 136 -293 117 -150 -12 -209 -35 -242 -92 -28 -50 -27 -135 3 -177
29 -41 76 -56 278 -90 90 -15 164 -30 164 -33 0 -3 -62 -41 -136 -85 -266
-156 -335 -226 -398 -403 -42 -118 -47 -213 -44 -787 3 -505 4 -532 23 -573
l20 -43 44 60 c48 66 117 119 201 154 54 22 60 22 565 22 l510 0 79 28 c44 15
98 30 120 33 l41 7 -58 -46 c-74 -58 -113 -82 -168 -104 -39 -15 -102 -18
-524 -23 -467 -5 -481 -6 -536 -28 -67 -27 -132 -81 -171 -141 -28 -45 -28
-45 -28 -216 0 -202 14 -272 63 -324 50 -53 81 -61 229 -62 102 0 127 -3 108
-11 -14 -5 -39 -16 -57 -23 -17 -8 -78 -54 -135 -102 -56 -49 -467 -392 -913
-763 -1317 -1095 -1386 -1153 -1382 -1156 2 -2 673 -4 1492 -4 l1489 -1 68 91
67 90 -944 0 c-520 0 -945 3 -945 6 0 3 15 17 32 32 18 15 134 115 258 223
219 191 572 507 1409 1263 98 88 196 168 221 180 l45 21 1485 3 c1379 3 1490
2 1550 -14 l65 -18 335 -325 c184 -179 570 -560 858 -846 l524 -520 -701 -5
-701 -5 72 -93 73 -92 1236 0 c1185 0 1237 1 1252 18 42 46 32 58 -223 288
-90 82 -360 331 -600 554 -532 495 -1132 1047 -1191 1096 -52 44 -121 79 -183
95 l-47 12 38 17 c21 10 50 30 65 46 53 56 58 85 58 310 l0 207 -31 49 c-34
53 -93 99 -161 125 -37 15 -107 18 -524 23 l-480 5 -75 37 c-40 21 -98 57
-127 80 -70 57 -47 60 100 13 l113 -37 480 7 c430 7 487 6 545 -9 106 -27 199
-93 262 -184 l31 -45 21 39 c21 38 21 49 21 644 0 600 0 606 -23 684 -57 197
-134 285 -381 433 -109 65 -147 93 -134 97 10 3 81 17 158 30 216 39 246 52
271 111 43 104 -13 208 -126 234 -25 6 -103 14 -175 17 -106 5 -137 4 -167 -9
-44 -18 -74 -63 -83 -121 -8 -50 -25 -108 -35 -119 -4 -5 -45 58 -90 140 -224
400 -345 588 -425 661 -64 58 -154 105 -235 121 -188 37 -1115 60 -1740 44z
m1030 -138 c257 -6 648 -31 700 -45 107 -29 181 -101 294 -290 120 -199 315
-574 304 -585 -3 -3 -176 0 -384 6 -536 18 -2397 18 -2882 1 -211 -8 -386 -12
-388 -9 -7 6 118 255 208 417 134 239 226 363 309 416 82 52 191 66 659 84
450 18 606 18 1180 5z m-2725 -1419 c229 -45 440 -118 572 -198 103 -62 223
-212 273 -342 l10 -28 -57 6 c-239 28 -622 101 -772 146 -86 26 -163 71 -195
113 -58 76 -74 270 -26 309 29 23 50 22 195 -6z m4616 5 c22 -18 24 -26 23
-109 0 -76 -4 -97 -28 -146 -59 -121 -176 -169 -606 -250 -120 -23 -420 -66
-456 -66 -11 0 -9 11 7 52 48 123 176 271 290 335 130 73 349 143 574 182 141
25 168 25 196 2z m-3571 -351 c120 -17 661 -32 1125 -32 605 -1 1168 21 1260
48 34 10 -40 -60 -95 -90 -32 -17 -75 -30 -127 -36 -400 -47 -1626 -47 -2046
1 -102 11 -164 38 -217 94 l-35 38 35 -7 c19 -4 64 -11 100 -16z m2742 -1457
c4 -148 18 -194 73 -249 l24 -24 -1713 0 -1714 0 38 38 c50 49 60 91 60 245
l0 127 1614 0 1614 0 4 -137z"/>
<path d="M8771 4183 c8 -9 214 -194 459 -412 245 -218 538 -479 651 -581 113
-102 313 -282 445 -400 131 -118 346 -313 477 -432 l238 -218 402 0 c336 0
399 2 387 13 -8 8 -73 58 -145 112 -187 142 -412 318 -720 565 -148 119 -371
294 -495 390 -124 95 -281 217 -350 270 -69 53 -224 173 -345 265 -121 93
-300 231 -398 307 l-177 138 -221 0 c-205 0 -220 -1 -208 -17z"/>
<path d="M5724 3655 c-119 -26 -175 -71 -160 -130 5 -19 21 -33 59 -51 29 -13
60 -24 70 -24 29 0 19 -14 -31 -40 l-47 -25 -11 -225 c-12 -252 -10 -264 48
-275 18 -3 269 -9 558 -13 l524 -7 193 -230 c282 -336 249 -305 321 -305 104
0 523 65 534 83 16 26 -61 116 -116 137 -22 8 -56 7 -140 -5 -61 -9 -121 -18
-133 -20 -22 -5 -80 56 -328 345 -54 63 -110 122 -124 130 -22 13 -105 16
-516 20 l-490 5 -3 38 -3 37 351 0 c223 0 358 4 371 10 32 18 25 67 -13 90
-31 19 -52 20 -370 20 l-338 0 0 85 c0 74 -3 86 -20 97 -35 22 -22 35 39 41
74 6 163 46 187 82 16 24 16 30 3 53 -20 36 -65 60 -145 77 -84 18 -189 18
-270 0z"/>
<path d="M5330 3156 c-283 -88 -468 -212 -542 -364 -66 -134 -37 -267 82 -381
185 -177 551 -281 984 -281 237 0 498 37 676 96 113 37 289 127 342 174 l48
41 -63 72 c-34 40 -76 89 -93 110 l-32 39 -32 -45 c-33 -46 -117 -115 -180
-147 -63 -32 -208 -79 -313 -101 -216 -45 -558 -35 -745 22 -159 50 -290 136
-332 220 -66 129 28 283 236 386 l94 46 0 74 c0 52 -4 73 -12 73 -7 -1 -60
-16 -118 -34z"/>
</g>
</svg>
